<?xml version="1.0" encoding="UTF-8"?>
<svg id="Layer_1" xmlns="http://www.w3.org/2000/svg" version="1.1" xmlns:cc="http://creativecommons.org/ns#" xmlns:dc="http://purl.org/dc/elements/1.1/" xmlns:rdf="http://www.w3.org/1999/02/22-rdf-syntax-ns#" viewBox="0 0 32 32">
  <!-- Generator: Adobe Illustrator 29.6.1, SVG Export Plug-In . SVG Version: 2.1.1 Build 9)  -->
  <defs>
    <style>
      .st0 {
        fill: #fff;
      }

      .st1 {
        fill: #9c569d;
      }
    </style>
  </defs>
  <rect class="st1" y="0" width="32" height="32" rx="5" ry="5"/>
  <g>
    <path class="st0" d="M17.79,8.28c-.1-.43-.12-.7-.69-1.13-.57-.43-8.38-2.35-9.41-2.15-1.03.2-1.36.4-1.7,1.05-.66,1.44-.89,6.28-.73,6.8.17.52.22.59.99.81.44.1,6.11.75,6.16.35.05-.4-4.3-2.2-4.36-2.32,0-.43.52-1.4.97-3.46,2.71.6,6.03.59,6.26.89.23.51.14,3.13.57,3.17.43.04,2.11-3.32,1.95-4.02Z"/>
    <path class="st0" d="M18.6,8.76c.28-.35.43-.58,1.08-.73.65-.15,7.75,1.44,8.47,2.05.72.62.9.94.86,1.68-.16,1.58-2.24,6.07-2.62,6.46-.38.4-.46.44-1.16.31-1.11-.27-5.35-2.4-5.24-2.83.12-.43,4.29.63,4.74.29.2-.39.25-1.49.86-3.54-2.43-.61-4.61-1.86-5.38-1.85-.34.33-2.1,4.59-2.46,4.53-.36-.06-.2-5.06.86-6.37Z"/>
    <path class="st0" d="M26.15,19.95c-.07-.4-.5-.74-1.38-1.02-.21-.07-8.22-2.96-8.32-2.41-.1.55,6.74,3.95,6.89,4.16.03.37-.84,3.21-1.1,3.33-.26.12-5.07-.92-5.52-1.41-.04-.07.5-3.8.04-3.87-.46-.08-2.32,3.97-2.37,4.22-.1.45-.42.98.51,1.6.92.62,7.01,2.58,7.71,2.62.71.04,1.83-.24,2.19-.84.32-.6.63-1.87.86-3.12.32-1.5.52-2.98.47-3.25Z"/>
    <path class="st0" d="M12.03,21.39c-.24.26-2.98-1.12-5.42-1.63.53-2.1.55-3.21.73-3.62.43-.37,6.72-.1,7.97-.62-.13-.57-9.49-1.29-9.93-1.16-.7.29-2.06,4.87-2.15,6.25-.01.74.17,1.06.91,1.65s7.86,1.87,8.51,1.69c.64-.18.78-.42,1.05-.78,1.01-1.38.99-6.43.63-6.47-.36-.04-2.04,4.43-2.29,4.69Z"/>
  </g>
</svg>