<?xml version="1.0" encoding="UTF-8"?>
<svg id="Layer_1" xmlns="http://www.w3.org/2000/svg" version="1.1" xmlns:cc="http://creativecommons.org/ns#" xmlns:dc="http://purl.org/dc/elements/1.1/" xmlns:rdf="http://www.w3.org/1999/02/22-rdf-syntax-ns#" viewBox="0 0 128 128">
  <!-- Generator: Adobe Illustrator 29.6.1, SVG Export Plug-In . SVG Version: 2.1.1 Build 9)  -->
  <defs>
    <style>
      .st0 {
        fill: #fff;
      }

      .st1 {
        fill: #9c569d;
      }
    </style>
  </defs>
  <rect class="st1" y="0" width="128" height="128" rx="20" ry="20"/>
  <g>
    <path class="st0" d="M71.77,27.81c-.45-1.98-.57-3.25-3.2-5.24-2.64-1.98-38.91-10.9-43.68-9.98-4.76.93-6.33,1.85-7.9,4.89-3.04,6.69-4.14,29.15-3.37,31.56.78,2.41,1.04,2.76,4.57,3.75,2.06.46,28.35,3.49,28.57,1.63.22-1.87-19.95-10.21-20.23-10.76.03-1.99,2.41-6.52,4.5-16.04,12.59,2.79,28.01,2.75,29.04,4.14,1.06,2.36.63,14.51,2.64,14.72,2.01.21,9.8-15.41,9.05-18.66Z"/>
    <path class="st0" d="M75.53,30.05c1.29-1.61,1.98-2.7,5-3.38,3.02-.68,35.98,6.67,39.32,9.53,3.34,2.87,4.15,4.37,3.97,7.78-.73,7.35-10.41,28.15-12.16,30-1.75,1.85-2.12,2.05-5.39,1.46-5.14-1.27-24.84-11.16-24.3-13.15.54-2,19.91,2.94,21.98,1.34.92-1.82,1.16-6.92,3.98-16.44-11.3-2.82-21.38-8.65-24.97-8.6-1.58,1.55-9.73,21.28-11.4,21.02-1.67-.26-.92-23.47,3.99-29.57Z"/>
    <path class="st0" d="M110.58,81.99c-.33-1.85-2.33-3.42-6.39-4.73-1-.32-38.13-13.74-38.59-11.18-.46,2.55,31.28,18.34,31.98,19.3.16,1.7-3.88,14.9-5.1,15.44-1.22.54-23.55-4.29-25.6-6.54-.19-.33,2.32-17.62.19-17.98-2.13-.35-10.75,18.44-11,19.6-.46,2.1-1.94,4.54,2.35,7.41,4.29,2.87,32.52,11.98,35.8,12.15,3.29.17,8.51-1.09,10.19-3.88,1.5-2.79,2.92-8.67,3.98-14.49,1.47-6.96,2.42-13.81,2.19-15.09Z"/>
    <path class="st0" d="M45.05,88.66c-1.13,1.2-13.82-5.21-25.17-7.56,2.47-9.73,2.53-14.9,3.38-16.78,2-1.71,31.19-.45,36.99-2.89-.58-2.67-44.05-6-46.1-5.39-3.24,1.36-9.58,22.59-9.99,29.02-.06,3.45.8,4.93,4.23,7.68,3.43,2.74,36.5,8.68,39.49,7.86,2.99-.82,3.63-1.96,4.86-3.64,4.68-6.38,4.61-29.86,2.94-30.05-1.67-.19-9.49,20.55-10.62,21.75Z"/>
  </g>
</svg>