<?xml version="1.0" encoding="UTF-8"?>
<svg id="Layer_1" xmlns="http://www.w3.org/2000/svg" version="1.1" xmlns:cc="http://creativecommons.org/ns#" xmlns:dc="http://purl.org/dc/elements/1.1/" xmlns:rdf="http://www.w3.org/1999/02/22-rdf-syntax-ns#" viewBox="0 0 560 120">
  <!-- Generator: Adobe Illustrator 29.6.1, SVG Export Plug-In . SVG Version: 2.1.1 Build 9)  -->
  <defs>
    <style>
      .st0 {
        fill: gray;
      }

      .st1 {
        fill: #945ca4;
      }

      .st2 {
        fill: #62a0d6;
      }

      .st3 {
        fill: #929497;
      }

      .st4 {
        fill: #00948b;
      }
    </style>
  </defs>
  <g>
    <path class="st4" d="M73.21,23.23c-.45-2-.57-3.28-3.23-5.28-2.66-2-39.26-11-44.07-10.06-4.81.94-6.39,1.87-7.97,4.93-3.07,6.75-4.18,29.41-3.4,31.84.79,2.43,1.05,2.78,4.61,3.78,2.07.47,28.61,3.53,28.83,1.64.22-1.88-20.13-10.3-20.41-10.85.03-2.01,2.43-6.57,4.54-16.18,12.71,2.82,28.26,2.77,29.3,4.18,1.07,2.38.64,14.64,2.66,14.85,2.03.21,9.88-15.55,9.14-18.83Z"/>
    <path class="st2" d="M77,25.49c1.3-1.62,1.99-2.72,5.04-3.41,3.05-.69,36.3,6.73,39.67,9.62,3.37,2.89,4.19,4.41,4.01,7.85-.74,7.42-10.5,28.4-12.27,30.27-1.76,1.87-2.14,2.07-5.44,1.47-5.19-1.28-25.06-11.26-24.52-13.27.55-2.01,20.09,2.96,22.17,1.35.93-1.83,1.17-6.99,4.01-16.58-11.4-2.85-21.57-8.72-25.2-8.67-1.6,1.56-9.82,21.47-11.5,21.21-1.69-.26-.93-23.68,4.03-29.83Z"/>
    <path class="st1" d="M112.36,77.89c-.33-1.87-2.35-3.45-6.44-4.77-1.01-.32-38.47-13.86-38.94-11.28-.47,2.58,31.56,18.51,32.27,19.48.16,1.71-3.91,15.03-5.15,15.58-1.23.55-23.76-4.33-25.83-6.6-.2-.33,2.34-17.78.19-18.14-2.15-.36-10.84,18.6-11.1,19.78-.47,2.12-1.95,4.58,2.37,7.47,4.33,2.9,32.81,12.09,36.13,12.26,3.32.17,8.59-1.1,10.28-3.92,1.51-2.82,2.94-8.74,4.02-14.62,1.49-7.03,2.45-13.93,2.21-15.22Z"/>
    <path class="st0" d="M46.25,84.62c-1.14,1.21-13.94-5.26-25.39-7.63,2.5-9.82,2.56-15.03,3.41-16.93,2.02-1.73,31.47-.46,37.32-2.91-.59-2.69-44.45-6.06-46.52-5.44-3.27,1.38-9.66,22.79-10.08,29.28-.06,3.48.81,4.98,4.27,7.75s36.82,8.76,39.84,7.93c3.01-.83,3.66-1.98,4.9-3.67,4.72-6.44,4.65-30.13,2.96-30.32-1.69-.19-9.58,20.73-10.72,21.95Z"/>
  </g>
  <g>
    <polygon class="st3" points="139.09 45.75 139.09 49.21 148.36 49.21 148.36 83.74 151.82 83.74 151.82 49.21 161.08 49.21 161.08 45.75 139.09 45.75"/>
    <polygon class="st3" points="172.18 56.22 172.18 68.91 163.33 68.91 163.33 56.22 160.01 56.22 160.01 83.71 163.33 83.71 163.33 72.23 172.18 72.23 172.18 83.71 175.49 83.71 175.49 56.22 172.18 56.22"/>
    <polygon class="st3" points="193.43 59.53 193.43 56.22 178.75 56.22 178.75 83.71 193.43 83.71 193.43 80.39 182.06 80.39 182.06 71.62 193.43 71.62 193.43 68.3 182.06 68.3 182.06 59.53 193.43 59.53"/>
    <path class="st3" d="M232.12,49.18c-2.05-2.05-4.58-3.3-7.61-3.71h-10.31v37.99h3.46v-12.69h5.52c3.47,0,6.48-1.25,8.94-3.7s3.7-5.47,3.7-8.96-1.25-6.48-3.7-8.93ZM223.19,67.29h-5.52v-18.33h5.52c2.54,0,4.66.88,6.47,2.68,1.81,1.8,2.69,3.92,2.69,6.48s-.88,4.68-2.69,6.49c-1.81,1.81-3.93,2.69-6.47,2.69Z"/>
    <polygon class="st3" points="250.48 56.22 250.48 68.91 241.63 68.91 241.63 56.22 238.31 56.22 238.31 83.71 241.63 83.71 241.63 72.23 250.48 72.23 250.48 83.71 253.8 83.71 253.8 56.22 250.48 56.22"/>
    <path class="st3" d="M280.69,59.98h0c-2.74-2.74-6.09-4.13-9.96-4.13s-7.22,1.39-9.96,4.13c-2.73,2.74-4.12,6.09-4.12,9.95s1.39,7.22,4.12,9.96c2.74,2.74,6.09,4.12,9.96,4.12s7.21-1.39,9.96-4.12c2.73-2.74,4.12-6.09,4.12-9.96s-1.39-7.22-4.12-9.95ZM270.73,80.68c-2.99,0-5.47-1.03-7.59-3.15-2.11-2.12-3.14-4.6-3.14-7.6s1.03-5.48,3.14-7.59c2.12-2.12,4.6-3.14,7.59-3.14s5.47,1.03,7.59,3.14c2.12,2.11,3.14,4.6,3.14,7.59s-1.03,5.48-3.14,7.6c-2.12,2.12-4.6,3.15-7.59,3.15Z"/>
    <polygon class="st3" points="284.9 56.22 284.9 59.53 291.38 59.53 291.38 83.71 294.7 83.71 294.7 59.53 301.18 59.53 301.18 56.22 284.9 56.22"/>
    <path class="st3" d="M325.3,59.98c-2.73-2.74-6.09-4.13-9.96-4.13s-7.22,1.39-9.96,4.13c-2.73,2.74-4.12,6.09-4.12,9.95s1.39,7.22,4.13,9.96c2.74,2.74,6.09,4.12,9.96,4.12s7.22-1.39,9.96-4.12c2.73-2.74,4.13-6.09,4.13-9.96s-1.39-7.21-4.13-9.95ZM315.35,80.68c-2.99,0-5.47-1.03-7.59-3.15-2.12-2.12-3.14-4.6-3.14-7.6s1.03-5.47,3.14-7.59c2.11-2.12,4.6-3.14,7.59-3.14s5.47,1.03,7.59,3.14c2.12,2.12,3.15,4.6,3.15,7.59s-1.03,5.48-3.15,7.6c-2.11,2.12-4.6,3.15-7.59,3.15Z"/>
    <path class="st3" d="M366.65,60.8c-1.24-1.37-2.57-2.33-3.97-2.87,1.48-1.53,2.23-3.19,2.23-4.96,0-2.06-.75-3.85-2.21-5.3-1.46-1.45-3.25-2.19-5.31-2.19h-7.2v37.99h7.79l.7-.02v-.03c3.05-.21,5.72-1.47,7.94-3.78,2.57-2.65,3.86-5.84,3.86-9.47s-1.3-6.81-3.85-9.37ZM353.67,60.49h3.57c2.7,0,4.93.93,6.84,2.83,1.91,1.91,2.83,4.15,2.83,6.85s-.93,4.98-2.84,6.94c-1.66,1.73-3.57,2.68-5.82,2.9h-4.58v-19.52ZM360.37,55.79c-.69.64-1.51,1-2.45,1.09h-4.26v-7.95h3.73c1.2,0,2.17.37,2.97,1.15.79.76,1.18,1.7,1.18,2.89s-.38,2.1-1.17,2.82Z"/>
    <path class="st3" d="M397.42,59.98h0c-2.73-2.74-6.09-4.13-9.96-4.13s-7.22,1.39-9.96,4.13c-2.73,2.74-4.13,6.09-4.13,9.95s1.39,7.22,4.13,9.96c2.74,2.74,6.09,4.12,9.96,4.12s7.22-1.39,9.96-4.12c2.73-2.73,4.13-6.08,4.13-9.96s-1.39-7.22-4.13-9.95ZM387.46,59.2c2.99,0,5.47,1.03,7.59,3.14,2.11,2.11,3.14,4.6,3.14,7.59s-1.03,5.48-3.14,7.6c-2.12,2.12-4.6,3.15-7.59,3.15s-5.47-1.03-7.59-3.15c-2.12-2.12-3.15-4.61-3.15-7.6s1.03-5.47,3.15-7.59c2.11-2.12,4.6-3.14,7.59-3.14Z"/>
    <path class="st3" d="M428.03,59.98h0c-2.73-2.74-6.09-4.13-9.96-4.13s-7.22,1.39-9.96,4.13c-2.73,2.74-4.13,6.09-4.13,9.95s1.39,7.22,4.13,9.96c2.74,2.74,6.09,4.12,9.96,4.12s7.22-1.39,9.96-4.12c2.73-2.73,4.13-6.08,4.13-9.96s-1.39-7.22-4.13-9.95ZM418.08,59.2c2.99,0,5.47,1.03,7.59,3.14,2.11,2.11,3.14,4.6,3.14,7.59s-1.03,5.48-3.14,7.6c-2.12,2.12-4.6,3.15-7.59,3.15s-5.47-1.03-7.59-3.15c-2.12-2.12-3.15-4.61-3.15-7.6s1.03-5.47,3.15-7.59c2.11-2.12,4.6-3.14,7.59-3.14Z"/>
    <polygon class="st3" points="432.24 56.22 432.24 59.53 438.73 59.53 438.73 83.71 442.04 83.71 442.04 59.53 448.52 59.53 448.52 56.22 432.24 56.22"/>
    <polygon class="st3" points="462.34 56.22 462.34 68.91 453.5 68.91 453.5 56.22 450.18 56.22 450.18 83.71 453.5 83.71 453.5 72.23 462.34 72.23 462.34 83.71 465.66 83.71 465.66 56.22 462.34 56.22"/>
    <rect class="st3" x="469.61" y="67.5" width="14.9" height="3.46"/>
    <polygon class="st3" points="491.91 80.39 491.91 56.22 488.59 56.22 488.59 83.71 501.84 83.71 501.84 80.39 491.91 80.39"/>
    <polygon class="st3" points="518.81 59.53 518.81 56.22 504.13 56.22 504.13 83.71 518.81 83.71 518.81 80.39 507.45 80.39 507.45 71.62 518.81 71.62 518.81 68.3 507.45 68.3 507.45 59.53 518.81 59.53"/>
    <path class="st3" d="M534.52,69.46c-1.5-1.5-3.36-2.61-5.43-3.28-1.18-.55-2.11-1.15-2.75-1.79-.6-.6-.89-1.3-.89-2.15s.29-1.56.9-2.16c1.21-1.2,3.13-1.18,4.3-.01.35.35.59.71.73,1.11l.33.9,3-1.19-.27-.83c-.27-.85-.76-1.63-1.45-2.29-1.24-1.23-2.76-1.86-4.5-1.86s-3.27.63-4.5,1.87c-1.23,1.24-1.86,2.74-1.86,4.46s.63,3.26,1.86,4.51c1.15,1.15,2.72,2.06,4.66,2.71,1.4.58,2.59,1.35,3.55,2.31,1.03,1.03,1.54,2.24,1.54,3.69s-.5,2.68-1.54,3.71c-1.03,1.03-2.24,1.53-3.71,1.53s-2.66-.5-3.69-1.54c-.89-.89-1.38-1.89-1.5-3.07l-.13-1.19-3.21,1.17.11.75c.27,1.76,1.07,3.33,2.4,4.65,1.66,1.67,3.68,2.52,6.02,2.52s4.37-.84,6.03-2.5c1.66-1.66,2.5-3.69,2.5-6.04s-.84-4.36-2.5-6.01Z"/>
    <path class="st3" d="M552.5,69.46c-1.5-1.5-3.37-2.61-5.44-3.27-1.18-.55-2.11-1.15-2.74-1.79-.6-.6-.89-1.3-.89-2.15s.29-1.56.89-2.16c1.2-1.19,3.12-1.19,4.31,0,.34.34.58.7.73,1.11l.34.89,2.99-1.19-.27-.83c-.27-.85-.76-1.62-1.45-2.29-2.51-2.48-6.56-2.45-9,.02-1.23,1.24-1.86,2.74-1.86,4.46s.63,3.27,1.86,4.51c1.15,1.15,2.72,2.06,4.66,2.71,1.41.58,2.6,1.36,3.55,2.31,1.03,1.03,1.54,2.24,1.54,3.69s-.5,2.68-1.54,3.71c-1.03,1.03-2.24,1.53-3.7,1.53s-2.66-.5-3.69-1.54c-.88-.88-1.38-1.89-1.5-3.07l-.13-1.19-3.2,1.17.11.75c.27,1.77,1.07,3.33,2.39,4.65,1.66,1.67,3.69,2.52,6.03,2.52s4.37-.84,6.03-2.5c1.66-1.66,2.5-3.69,2.5-6.04s-.84-4.36-2.5-6.01Z"/>
  </g>
</svg>