<?xml version="1.0" encoding="UTF-8"?>
<svg id="Layer_1" xmlns="http://www.w3.org/2000/svg" version="1.1" xmlns:cc="http://creativecommons.org/ns#" xmlns:dc="http://purl.org/dc/elements/1.1/" xmlns:rdf="http://www.w3.org/1999/02/22-rdf-syntax-ns#" viewBox="0 0 62 34">
  <!-- Generator: Adobe Illustrator 29.6.1, SVG Export Plug-In . SVG Version: 2.1.1 Build 9)  -->
  <defs>
    <style>
      .st0 {
        fill: #dfdddd;
      }
    </style>
  </defs>
  <path class="st0" d="M33.26,6.45c-.13-.58-.17-.95-.93-1.53-.77-.58-11.34-3.18-12.73-2.91-1.39.27-1.85.54-2.3,1.42-.89,1.95-1.21,8.5-.98,9.2.23.7.3.8,1.33,1.09.6.13,8.26,1.02,8.33.47.06-.54-5.81-2.98-5.9-3.14,0-.58.7-1.9,1.31-4.68,3.67.81,8.16.8,8.46,1.21.31.69.18,4.23.77,4.29.59.06,2.86-4.49,2.64-5.44Z"/>
  <path class="st0" d="M34.36,7.1c.38-.47.58-.79,1.46-.98.88-.2,10.49,1.94,11.46,2.78.97.84,1.21,1.27,1.16,2.27-.21,2.14-3.03,8.2-3.55,8.74-.51.54-.62.6-1.57.42-1.5-.37-7.24-3.25-7.08-3.83.16-.58,5.8.86,6.41.39.27-.53.34-2.02,1.16-4.79-3.29-.82-6.23-2.52-7.28-2.51-.46.45-2.84,6.2-3.32,6.13-.49-.08-.27-6.84,1.16-8.62Z"/>
  <path class="st0" d="M44.57,22.24c-.1-.54-.68-1-1.86-1.38-.29-.09-11.11-4-11.25-3.26-.14.74,9.12,5.35,9.32,5.63.05.5-1.13,4.34-1.49,4.5-.36.16-6.86-1.25-7.46-1.91-.06-.1.68-5.14.05-5.24-.62-.1-3.13,5.37-3.21,5.71-.13.61-.56,1.32.68,2.16,1.25.84,9.48,3.49,10.44,3.54.96.05,2.48-.32,2.97-1.13.44-.81.85-2.53,1.16-4.22.43-2.03.71-4.02.64-4.4Z"/>
  <path class="st0" d="M25.48,24.19c-.33.35-4.03-1.52-7.33-2.2.72-2.84.74-4.34.99-4.89.58-.5,9.09-.13,10.78-.84-.17-.78-12.84-1.75-13.44-1.57-.94.4-2.79,6.58-2.91,8.46-.02,1.01.23,1.44,1.23,2.24s10.64,2.53,11.51,2.29c.87-.24,1.06-.57,1.42-1.06,1.36-1.86,1.34-8.7.86-8.76-.49-.05-2.77,5.99-3.1,6.34Z"/>
</svg>